<svg width="18" height="22" viewBox="0 0 18 22" fill="none" xmlns="http://www.w3.org/2000/svg">
<path d="M5.86536 19.2734H12.1359C12.1642 19.2734 12.1923 19.281 12.2169 19.2949C12.2414 19.3088 12.2619 19.3285 12.2765 19.3525C12.2911 19.3767 12.2991 19.4044 12.2999 19.4326C12.3007 19.4607 12.2944 19.4888 12.2814 19.5137C11.9625 20.1065 11.4889 20.6027 10.9113 20.9482C10.3336 21.2937 9.67313 21.476 9.00012 21.4766C8.32707 21.4759 7.66659 21.2928 7.08899 20.9473C6.51149 20.6018 6.0377 20.1063 5.71887 19.5137C5.70584 19.4888 5.69951 19.4607 5.70032 19.4326C5.70116 19.4044 5.70914 19.3767 5.72375 19.3525C5.73842 19.3283 5.7596 19.3088 5.7843 19.2949C5.79675 19.2879 5.80965 19.2819 5.82336 19.2783L5.86536 19.2734ZM9.00012 0.523438C10.2451 0.523489 11.352 1.42837 11.757 2.78418L11.7794 2.77734L11.755 2.78516L11.7618 2.79297C11.7745 2.80764 11.7899 2.81969 11.8068 2.8291L11.8058 2.83008L11.8087 2.83105C12.938 3.29568 13.7942 3.92372 14.4269 4.75098C15.2848 5.87075 15.7208 7.36526 15.7208 9.18945C15.7208 10.9558 15.877 12.0301 16.1632 12.8193C16.4496 13.6091 16.8665 14.1128 17.382 14.7363C17.456 14.8257 17.5334 14.9208 17.6105 15.0137C17.8086 15.253 17.934 15.5442 17.9718 15.8525C18.0096 16.161 17.9579 16.4738 17.8234 16.7539C17.5373 17.3519 16.934 17.7255 16.2423 17.7256H1.76282C1.11121 17.7255 0.536757 17.3965 0.232544 16.8604L0.174927 16.751L0.129028 16.6445C0.0299743 16.3929 -0.00482244 16.1202 0.0284424 15.8506C0.066514 15.5426 0.191698 15.2516 0.389771 15.0127C0.467498 14.9172 0.544229 14.8249 0.619263 14.7344C1.13516 14.1116 1.55172 13.609 1.83801 12.8193C2.12411 12.0301 2.27941 10.9555 2.27942 9.18848C2.27942 7.58866 2.59978 6.26971 3.24817 5.21582C3.89662 4.16206 4.87493 3.37053 6.1925 2.82812L6.19446 2.82715C6.2109 2.81796 6.22585 2.80603 6.2384 2.79199L6.24036 2.79395L6.24329 2.7832C6.6482 1.42869 7.75504 0.523438 9.00012 0.523438Z" fill="#4A69E2" stroke="#4A69E2" stroke-width="0.046875"/>
</svg>
