<svg width="26" height="26" viewBox="0 0 26 26" fill="none" xmlns="http://www.w3.org/2000/svg">
<path d="M13 0.0234375C20.1552 0.0234375 25.9766 5.84482 25.9766 13C25.9766 20.1552 20.1552 25.9766 13 25.9766C5.84482 25.9766 0.0234375 20.1552 0.0234375 13C0.0234375 5.84482 5.84482 0.0234375 13 0.0234375ZM18.9092 6.99121C18.6749 7.00994 18.4552 7.10815 18.2861 7.26855L18.2168 7.3418L10.5713 16.4404L7.75977 13.3154H7.75879C7.67015 13.2124 7.56201 13.1281 7.44043 13.0674C7.31838 13.0065 7.18495 12.9697 7.04883 12.9609C6.91279 12.9522 6.77624 12.9709 6.64746 13.0156C6.51873 13.0603 6.40016 13.1306 6.29883 13.2217C6.19748 13.3129 6.11468 13.4235 6.05664 13.5469C5.99865 13.6702 5.96657 13.8043 5.96094 13.9404C5.95534 14.0767 5.9767 14.2131 6.02441 14.3408C6.0602 14.4366 6.10972 14.5267 6.17188 14.6074L6.23828 14.6846L9.83789 18.6846C9.93382 18.7912 10.0516 18.8762 10.1826 18.9346C10.2807 18.9783 10.3848 19.0063 10.4912 19.0176L10.5986 19.0234H10.6162C10.7627 19.0211 10.9067 18.9868 11.0391 18.9238C11.1715 18.8608 11.2895 18.7705 11.3838 18.6582L19.7832 8.6582H19.7842C19.9541 8.44986 20.035 8.18271 20.0098 7.91504C19.9846 7.64749 19.8551 7.40046 19.6494 7.22754C19.4435 7.0546 19.1772 6.96985 18.9092 6.99121Z" fill="#4A69E2" stroke="#4A69E2" stroke-width="0.046875"/>
</svg>
