<svg width="12" height="9" viewBox="0 0 12 9" fill="none" xmlns="http://www.w3.org/2000/svg">
<path d="M11.0569 0.504883C11.1004 0.504936 11.1423 0.522028 11.1731 0.552734C11.204 0.583616 11.2209 0.626244 11.2209 0.669922C11.2209 0.71347 11.2039 0.755336 11.1731 0.786133L4.11938 7.83887C4.05465 7.90361 3.9517 7.90361 3.88696 7.83887L1.09985 5.05273C1.08464 5.03748 1.07294 5.01893 1.0647 4.99902C1.0565 4.97917 1.05204 4.958 1.052 4.93652C1.052 4.89285 1.06897 4.85022 1.09985 4.81934C1.13073 4.78847 1.17338 4.77148 1.21704 4.77148C1.26051 4.77158 1.30247 4.78864 1.33325 4.81934L4.00024 7.48633L4.35376 7.13281L10.9397 0.553711L10.9407 0.552734C10.9715 0.522107 11.0134 0.504883 11.0569 0.504883Z" fill="#232321" stroke="#232321"/>
</svg>
